# xmcd CD database file
#
# Track frame offsets:
#	150
#	32906
#	74402
#	105858
#	126236
#	145585
#	171451
#	205653
#	228734
#	247347
#	264127
#	295590
#
# Disc length: 4436 seconds
#
# Revision: 0
# Processed by: cddbd v1.5.1PL0 Copyright (c) Steve Scherf et al.
# Submitted via: CDex 1.51
#
DISCID=af11520c
DTITLE=The Jonny Artis Band - Live Versatility
DYEAR=2000
DGENRE=Jazz
TTITLE0=It's Not My Cross to Bear (Allman)
TTITLE1=Congo Square (Landreth)
TTITLE2=Tell It Like It Is Davis, Diamond)
TTITLE3=Let Me Love You Baby (Dixon)
TTITLE4=Ballin the Jack (Artis)
TTITLE5=Mojo Hand (Hopkins, Lewis, Robinson)
TTITLE6=No Woman, No Cry - Stir It Up (Cliff - Marley)
TTITLE7=Let's Stay Together (Green)
TTITLE8=T-Bone Shuffle (Green, Jackson, Mitchell)
TTITLE9=Hold On I'm Coming (Hayes, Porter)
TTITLE10=Morning Train (Arlis)
TTITLE11=What a Wonderful World
EXTD=YEAR: 2000
EXTT0=
EXTT1=
EXTT2=
EXTT3=
EXTT4=
EXTT5=
EXTT6=
EXTT7=
EXTT8=
EXTT9=
EXTT10=
EXTT11=
PLAYORDER=
